<svg width="314" height="53" viewBox="0 0 314 53" fill="none" xmlns="http://www.w3.org/2000/svg">
<g filter="url(#filter0_d_636_449)">
<rect x="4" width="306" height="45" rx="8" fill="#052C65" shape-rendering="crispEdges"/>
<path d="M61.4375 18.1307C61.3466 17.3239 60.9716 16.6989 60.3125 16.2557C59.6534 15.8068 58.8239 15.5824 57.8239 15.5824C57.108 15.5824 56.4886 15.696 55.9659 15.9233C55.4432 16.1449 55.0369 16.4517 54.7472 16.8438C54.4631 17.2301 54.321 17.6705 54.321 18.1648C54.321 18.5795 54.4176 18.9375 54.6108 19.2386C54.8097 19.5398 55.0682 19.7926 55.3864 19.9972C55.7102 20.196 56.0568 20.3636 56.4261 20.5C56.7955 20.6307 57.1506 20.7386 57.4915 20.8239L59.196 21.267C59.7528 21.4034 60.3239 21.5881 60.9091 21.821C61.4943 22.054 62.0369 22.3608 62.5369 22.7415C63.0369 23.1222 63.4403 23.5938 63.7472 24.1562C64.0597 24.7188 64.2159 25.392 64.2159 26.1761C64.2159 27.1648 63.9602 28.0426 63.4489 28.8097C62.9432 29.5767 62.2074 30.1818 61.2415 30.625C60.2813 31.0682 59.1193 31.2898 57.7557 31.2898C56.4489 31.2898 55.3182 31.0824 54.3636 30.6676C53.4091 30.2528 52.6619 29.6648 52.1222 28.9034C51.5824 28.1364 51.2841 27.2273 51.2273 26.1761H53.8693C53.9205 26.8068 54.125 27.3324 54.483 27.7528C54.8466 28.1676 55.3097 28.4773 55.8722 28.6818C56.4403 28.8807 57.0625 28.9801 57.7386 28.9801C58.483 28.9801 59.1449 28.8636 59.7244 28.6307C60.3097 28.392 60.7699 28.0625 61.1051 27.642C61.4403 27.2159 61.608 26.7187 61.608 26.1506C61.608 25.6335 61.4602 25.2102 61.1648 24.8807C60.875 24.5511 60.4801 24.2784 59.9801 24.0625C59.4858 23.8466 58.9261 23.6562 58.3011 23.4915L56.2386 22.929C54.8409 22.5483 53.733 21.9886 52.9148 21.25C52.1023 20.5114 51.696 19.5341 51.696 18.3182C51.696 17.3125 51.9688 16.4347 52.5142 15.6847C53.0597 14.9347 53.7983 14.3523 54.7301 13.9375C55.6619 13.517 56.7131 13.3068 57.8835 13.3068C59.0653 13.3068 60.108 13.5142 61.0114 13.929C61.9205 14.3438 62.6364 14.9148 63.1591 15.642C63.6818 16.3636 63.9545 17.1932 63.9773 18.1307H61.4375ZM73.2692 17.9091V19.9545H66.1186V17.9091H73.2692ZM68.0362 14.7727H70.5845V27.1562C70.5845 27.6506 70.6584 28.0227 70.8061 28.2727C70.9538 28.517 71.1442 28.6847 71.3771 28.7756C71.6158 28.8608 71.8743 28.9034 72.1527 28.9034C72.3572 28.9034 72.5362 28.8892 72.6896 28.8608C72.843 28.8324 72.9624 28.8097 73.0476 28.7926L73.5078 30.8977C73.3601 30.9545 73.1499 31.0114 72.8771 31.0682C72.6044 31.1307 72.2635 31.1648 71.8544 31.1705C71.1839 31.1818 70.5589 31.0625 69.9794 30.8125C69.3999 30.5625 68.9311 30.1761 68.5732 29.6534C68.2152 29.1307 68.0362 28.4744 68.0362 27.6847V14.7727ZM79.8977 31.2898C79.0682 31.2898 78.3182 31.1364 77.6477 30.8295C76.9773 30.517 76.446 30.0653 76.054 29.4744C75.6676 28.8835 75.4744 28.1591 75.4744 27.3011C75.4744 26.5625 75.6165 25.9545 75.9006 25.4773C76.1847 25 76.5682 24.6222 77.0511 24.3438C77.5341 24.0653 78.0739 23.8551 78.6705 23.7131C79.267 23.571 79.875 23.4631 80.4943 23.3892C81.2784 23.2983 81.9148 23.2244 82.4034 23.1676C82.892 23.1051 83.2472 23.0057 83.4688 22.8693C83.6903 22.733 83.8011 22.5114 83.8011 22.2045V22.1449C83.8011 21.4006 83.5909 20.8239 83.1705 20.4148C82.7557 20.0057 82.1364 19.8011 81.3125 19.8011C80.4545 19.8011 79.7784 19.9915 79.2841 20.3722C78.7955 20.7472 78.4574 21.1648 78.2699 21.625L75.875 21.0795C76.1591 20.2841 76.5739 19.642 77.1193 19.1534C77.6705 18.6591 78.304 18.3011 79.0199 18.0795C79.7358 17.8523 80.4886 17.7386 81.2784 17.7386C81.8011 17.7386 82.3551 17.8011 82.9403 17.9261C83.5313 18.0455 84.0824 18.267 84.5938 18.5909C85.1108 18.9148 85.5341 19.3778 85.8636 19.9801C86.1932 20.5767 86.358 21.3523 86.358 22.3068V31H83.8693V29.2102H83.767C83.6023 29.5398 83.3551 29.8636 83.0256 30.1818C82.696 30.5 82.2727 30.7642 81.7557 30.9744C81.2386 31.1847 80.6193 31.2898 79.8977 31.2898ZM80.4517 29.2443C81.1563 29.2443 81.7585 29.1051 82.2585 28.8267C82.7642 28.5483 83.1477 28.1847 83.4091 27.7358C83.6761 27.2812 83.8097 26.7955 83.8097 26.2784V24.5909C83.7188 24.6818 83.5426 24.767 83.2812 24.8466C83.0256 24.9205 82.733 24.9858 82.4034 25.0426C82.0739 25.0937 81.7528 25.142 81.4403 25.1875C81.1278 25.2273 80.8665 25.2614 80.6562 25.2898C80.1619 25.3523 79.7102 25.4574 79.3011 25.6051C78.8977 25.7528 78.5739 25.9659 78.3295 26.2443C78.0909 26.517 77.9716 26.8807 77.9716 27.3352C77.9716 27.9659 78.2045 28.4432 78.6705 28.767C79.1364 29.0852 79.7301 29.2443 80.4517 29.2443ZM89.7521 31V17.9091H92.2152V19.9886H92.3516C92.5902 19.2841 93.0107 18.7301 93.6129 18.3267C94.2209 17.9176 94.9084 17.7131 95.6754 17.7131C95.8345 17.7131 96.022 17.7187 96.2379 17.7301C96.4595 17.7415 96.6328 17.7557 96.7578 17.7727V20.2102C96.6555 20.1818 96.4737 20.1506 96.2124 20.1165C95.951 20.0767 95.6896 20.0568 95.4283 20.0568C94.826 20.0568 94.2891 20.1847 93.8175 20.4403C93.3516 20.6903 92.9822 21.0398 92.7095 21.4886C92.4368 21.9318 92.3004 22.4375 92.3004 23.0057V31H89.7521ZM105.847 17.9091V19.9545H98.6967V17.9091H105.847ZM100.614 14.7727H103.163V27.1562C103.163 27.6506 103.237 28.0227 103.384 28.2727C103.532 28.517 103.722 28.6847 103.955 28.7756C104.194 28.8608 104.452 28.9034 104.731 28.9034C104.935 28.9034 105.114 28.8892 105.268 28.8608C105.421 28.8324 105.54 28.8097 105.626 28.7926L106.086 30.8977C105.938 30.9545 105.728 31.0114 105.455 31.0682C105.183 31.1307 104.842 31.1648 104.433 31.1705C103.762 31.1818 103.137 31.0625 102.558 30.8125C101.978 30.5625 101.509 30.1761 101.151 29.6534C100.793 29.1307 100.614 28.4744 100.614 27.6847V14.7727ZM116.629 35.9091C116.248 35.9091 115.901 35.8778 115.589 35.8153C115.276 35.7585 115.043 35.696 114.89 35.6278L115.504 33.5398C115.969 33.6648 116.384 33.7188 116.748 33.7017C117.112 33.6847 117.433 33.5483 117.711 33.2926C117.995 33.0369 118.245 32.6193 118.461 32.0398L118.776 31.1705L113.987 17.9091H116.714L120.029 28.0682H120.165L123.481 17.9091H126.217L120.822 32.7472C120.572 33.429 120.254 34.0057 119.867 34.4773C119.481 34.9545 119.021 35.3125 118.487 35.5511C117.952 35.7898 117.333 35.9091 116.629 35.9091ZM133.68 31.2642C132.453 31.2642 131.382 30.983 130.467 30.4205C129.553 29.858 128.842 29.071 128.337 28.0597C127.831 27.0483 127.578 25.8665 127.578 24.5142C127.578 23.1562 127.831 21.9687 128.337 20.9517C128.842 19.9347 129.553 19.1449 130.467 18.5824C131.382 18.0199 132.453 17.7386 133.68 17.7386C134.908 17.7386 135.979 18.0199 136.893 18.5824C137.808 19.1449 138.518 19.9347 139.024 20.9517C139.53 21.9687 139.783 23.1562 139.783 24.5142C139.783 25.8665 139.53 27.0483 139.024 28.0597C138.518 29.071 137.808 29.858 136.893 30.4205C135.979 30.983 134.908 31.2642 133.68 31.2642ZM133.689 29.125C134.484 29.125 135.143 28.9148 135.666 28.4943C136.189 28.0739 136.575 27.5142 136.825 26.8153C137.081 26.1165 137.209 25.3466 137.209 24.5057C137.209 23.6705 137.081 22.9034 136.825 22.2045C136.575 21.5 136.189 20.9347 135.666 20.5085C135.143 20.0824 134.484 19.8693 133.689 19.8693C132.888 19.8693 132.223 20.0824 131.695 20.5085C131.172 20.9347 130.783 21.5 130.527 22.2045C130.277 22.9034 130.152 23.6705 130.152 24.5057C130.152 25.3466 130.277 26.1165 130.527 26.8153C130.783 27.5142 131.172 28.0739 131.695 28.4943C132.223 28.9148 132.888 29.125 133.689 29.125ZM150.92 25.571V17.9091H153.477V31H150.971V28.733H150.835C150.533 29.4318 150.05 30.0142 149.386 30.4801C148.727 30.9403 147.906 31.1705 146.923 31.1705C146.082 31.1705 145.337 30.9858 144.69 30.6165C144.048 30.2415 143.542 29.6875 143.173 28.9545C142.809 28.2216 142.627 27.3153 142.627 26.2358V17.9091H145.175V25.929C145.175 26.821 145.423 27.5312 145.917 28.0597C146.411 28.5881 147.053 28.8523 147.843 28.8523C148.32 28.8523 148.795 28.733 149.266 28.4943C149.744 28.2557 150.138 27.8949 150.451 27.4119C150.769 26.929 150.925 26.3153 150.92 25.571ZM156.901 31V17.9091H159.364V19.9886H159.5C159.739 19.2841 160.159 18.7301 160.761 18.3267C161.369 17.9176 162.057 17.7131 162.824 17.7131C162.983 17.7131 163.17 17.7187 163.386 17.7301C163.608 17.7415 163.781 17.7557 163.906 17.7727V20.2102C163.804 20.1818 163.622 20.1506 163.361 20.1165C163.099 20.0767 162.838 20.0568 162.577 20.0568C161.974 20.0568 161.438 20.1847 160.966 20.4403C160.5 20.6903 160.131 21.0398 159.858 21.4886C159.585 21.9318 159.449 22.4375 159.449 23.0057V31H156.901ZM179.452 13.5455H182.077V25.9205C182.077 27.0398 181.855 27.9972 181.412 28.7926C180.974 29.5881 180.358 30.196 179.562 30.6165C178.767 31.0312 177.835 31.2386 176.767 31.2386C175.784 31.2386 174.901 31.0597 174.116 30.7017C173.338 30.3437 172.722 29.8239 172.267 29.142C171.818 28.4545 171.594 27.6193 171.594 26.6364H174.21C174.21 27.1193 174.321 27.5369 174.543 27.8892C174.77 28.2415 175.08 28.517 175.472 28.7159C175.869 28.9091 176.324 29.0057 176.835 29.0057C177.392 29.0057 177.864 28.8892 178.25 28.6562C178.642 28.4176 178.94 28.0682 179.145 27.608C179.349 27.1477 179.452 26.5852 179.452 25.9205V13.5455ZM191.219 31.2642C189.992 31.2642 188.921 30.983 188.006 30.4205C187.092 29.858 186.381 29.071 185.876 28.0597C185.37 27.0483 185.117 25.8665 185.117 24.5142C185.117 23.1562 185.37 21.9687 185.876 20.9517C186.381 19.9347 187.092 19.1449 188.006 18.5824C188.921 18.0199 189.992 17.7386 191.219 17.7386C192.447 17.7386 193.518 18.0199 194.433 18.5824C195.347 19.1449 196.058 19.9347 196.563 20.9517C197.069 21.9687 197.322 23.1562 197.322 24.5142C197.322 25.8665 197.069 27.0483 196.563 28.0597C196.058 29.071 195.347 29.858 194.433 30.4205C193.518 30.983 192.447 31.2642 191.219 31.2642ZM191.228 29.125C192.023 29.125 192.683 28.9148 193.205 28.4943C193.728 28.0739 194.114 27.5142 194.364 26.8153C194.62 26.1165 194.748 25.3466 194.748 24.5057C194.748 23.6705 194.62 22.9034 194.364 22.2045C194.114 21.5 193.728 20.9347 193.205 20.5085C192.683 20.0824 192.023 19.8693 191.228 19.8693C190.427 19.8693 189.762 20.0824 189.234 20.5085C188.711 20.9347 188.322 21.5 188.066 22.2045C187.816 22.9034 187.691 23.6705 187.691 24.5057C187.691 25.3466 187.816 26.1165 188.066 26.8153C188.322 27.5142 188.711 28.0739 189.234 28.4943C189.762 28.9148 190.427 29.125 191.228 29.125ZM208.459 25.571V17.9091H211.016V31H208.51V28.733H208.374C208.072 29.4318 207.589 30.0142 206.925 30.4801C206.266 30.9403 205.445 31.1705 204.462 31.1705C203.621 31.1705 202.876 30.9858 202.229 30.6165C201.587 30.2415 201.081 29.6875 200.712 28.9545C200.348 28.2216 200.166 27.3153 200.166 26.2358V17.9091H202.714V25.929C202.714 26.821 202.962 27.5312 203.456 28.0597C203.95 28.5881 204.592 28.8523 205.382 28.8523C205.859 28.8523 206.334 28.733 206.805 28.4943C207.283 28.2557 207.678 27.8949 207.99 27.4119C208.308 26.929 208.464 26.3153 208.459 25.571ZM214.44 31V17.9091H216.903V19.9886H217.039C217.278 19.2841 217.698 18.7301 218.3 18.3267C218.908 17.9176 219.596 17.7131 220.363 17.7131C220.522 17.7131 220.71 17.7187 220.925 17.7301C221.147 17.7415 221.32 17.7557 221.445 17.7727V20.2102C221.343 20.1818 221.161 20.1506 220.9 20.1165C220.638 20.0767 220.377 20.0568 220.116 20.0568C219.513 20.0568 218.977 20.1847 218.505 20.4403C218.039 20.6903 217.67 21.0398 217.397 21.4886C217.124 21.9318 216.988 22.4375 216.988 23.0057V31H214.44ZM226.199 23.2273V31H223.651V17.9091H226.097V20.0398H226.259C226.56 19.3466 227.031 18.7898 227.673 18.3693C228.321 17.9489 229.136 17.7386 230.119 17.7386C231.011 17.7386 231.793 17.9261 232.463 18.3011C233.134 18.6705 233.653 19.2216 234.023 19.9545C234.392 20.6875 234.577 21.5937 234.577 22.6733V31H232.028V22.9801C232.028 22.0312 231.781 21.2898 231.287 20.7557C230.793 20.2159 230.114 19.946 229.25 19.946C228.659 19.946 228.134 20.0739 227.673 20.3295C227.219 20.5852 226.858 20.9602 226.591 21.4545C226.33 21.9432 226.199 22.5341 226.199 23.2273ZM243.636 31.2642C242.347 31.2642 241.236 30.9886 240.304 30.4375C239.378 29.8807 238.662 29.0994 238.156 28.0938C237.656 27.0824 237.406 25.8977 237.406 24.5398C237.406 23.1989 237.656 22.017 238.156 20.9943C238.662 19.9716 239.366 19.1733 240.27 18.5994C241.179 18.0256 242.241 17.7386 243.457 17.7386C244.196 17.7386 244.912 17.8608 245.605 18.1051C246.298 18.3494 246.92 18.733 247.472 19.2557C248.023 19.7784 248.457 20.4574 248.776 21.2926C249.094 22.1222 249.253 23.1307 249.253 24.3182V25.2216H238.847V23.3125H246.756C246.756 22.642 246.619 22.0483 246.347 21.5312C246.074 21.0085 245.69 20.5966 245.196 20.2955C244.707 19.9943 244.134 19.8438 243.474 19.8438C242.759 19.8438 242.134 20.0199 241.599 20.3722C241.071 20.7187 240.662 21.1733 240.372 21.7358C240.088 22.2926 239.946 22.8977 239.946 23.5511V25.0426C239.946 25.9176 240.099 26.6619 240.406 27.2756C240.719 27.8892 241.153 28.358 241.71 28.6818C242.267 29 242.918 29.1591 243.662 29.1591C244.145 29.1591 244.585 29.0909 244.983 28.9545C245.381 28.8125 245.724 28.6023 246.014 28.3239C246.304 28.0455 246.526 27.7017 246.679 27.2926L249.091 27.7273C248.898 28.4375 248.551 29.0597 248.051 29.5938C247.557 30.1222 246.935 30.5341 246.185 30.8295C245.44 31.1193 244.591 31.2642 243.636 31.2642ZM253.316 35.9091C252.935 35.9091 252.589 35.8778 252.276 35.8153C251.964 35.7585 251.731 35.696 251.577 35.6278L252.191 33.5398C252.657 33.6648 253.072 33.7188 253.435 33.7017C253.799 33.6847 254.12 33.5483 254.398 33.2926C254.683 33.0369 254.933 32.6193 255.148 32.0398L255.464 31.1705L250.674 17.9091H253.401L256.717 28.0682H256.853L260.168 17.9091H262.904L257.509 32.7472C257.259 33.429 256.941 34.0057 256.555 34.4773C256.168 34.9545 255.708 35.3125 255.174 35.5511C254.64 35.7898 254.021 35.9091 253.316 35.9091Z" fill="white"/>
</g>
<defs>
<filter id="filter0_d_636_449" x="0" y="0" width="314" height="53" filterUnits="userSpaceOnUse" color-interpolation-filters="sRGB">
<feFlood flood-opacity="0" result="BackgroundImageFix"/>
<feColorMatrix in="SourceAlpha" type="matrix" values="0 0 0 0 0 0 0 0 0 0 0 0 0 0 0 0 0 0 127 0" result="hardAlpha"/>
<feOffset dy="4"/>
<feGaussianBlur stdDeviation="2"/>
<feComposite in2="hardAlpha" operator="out"/>
<feColorMatrix type="matrix" values="0 0 0 0 0 0 0 0 0 0 0 0 0 0 0 0 0 0 0.25 0"/>
<feBlend mode="normal" in2="BackgroundImageFix" result="effect1_dropShadow_636_449"/>
<feBlend mode="normal" in="SourceGraphic" in2="effect1_dropShadow_636_449" result="shape"/>
</filter>
</defs>
</svg>
