<svg width="314" height="53" viewBox="0 0 314 53" fill="none" xmlns="http://www.w3.org/2000/svg">
<g filter="url(#filter0_d_636_457)">
<rect x="4" width="306" height="45" rx="8" fill="#9EC5FE" shape-rendering="crispEdges"/>
<path d="M64.9375 18.1307C64.8466 17.3239 64.4716 16.6989 63.8125 16.2557C63.1534 15.8068 62.3239 15.5824 61.3239 15.5824C60.608 15.5824 59.9886 15.696 59.4659 15.9233C58.9432 16.1449 58.5369 16.4517 58.2472 16.8438C57.9631 17.2301 57.821 17.6705 57.821 18.1648C57.821 18.5795 57.9176 18.9375 58.1108 19.2386C58.3097 19.5398 58.5682 19.7926 58.8864 19.9972C59.2102 20.196 59.5568 20.3636 59.9261 20.5C60.2955 20.6307 60.6506 20.7386 60.9915 20.8239L62.696 21.267C63.2528 21.4034 63.8239 21.5881 64.4091 21.821C64.9943 22.054 65.5369 22.3608 66.0369 22.7415C66.5369 23.1222 66.9403 23.5938 67.2472 24.1562C67.5597 24.7188 67.7159 25.392 67.7159 26.1761C67.7159 27.1648 67.4602 28.0426 66.9489 28.8097C66.4432 29.5767 65.7074 30.1818 64.7415 30.625C63.7813 31.0682 62.6193 31.2898 61.2557 31.2898C59.9489 31.2898 58.8182 31.0824 57.8636 30.6676C56.9091 30.2528 56.1619 29.6648 55.6222 28.9034C55.0824 28.1364 54.7841 27.2273 54.7273 26.1761H57.3693C57.4205 26.8068 57.625 27.3324 57.983 27.7528C58.3466 28.1676 58.8097 28.4773 59.3722 28.6818C59.9403 28.8807 60.5625 28.9801 61.2386 28.9801C61.983 28.9801 62.6449 28.8636 63.2244 28.6307C63.8097 28.392 64.2699 28.0625 64.6051 27.642C64.9403 27.2159 65.108 26.7187 65.108 26.1506C65.108 25.6335 64.9602 25.2102 64.6648 24.8807C64.375 24.5511 63.9801 24.2784 63.4801 24.0625C62.9858 23.8466 62.4261 23.6562 61.8011 23.4915L59.7386 22.929C58.3409 22.5483 57.233 21.9886 56.4148 21.25C55.6023 20.5114 55.196 19.5341 55.196 18.3182C55.196 17.3125 55.4688 16.4347 56.0142 15.6847C56.5597 14.9347 57.2983 14.3523 58.2301 13.9375C59.1619 13.517 60.2131 13.3068 61.3835 13.3068C62.5653 13.3068 63.608 13.5142 64.5114 13.929C65.4205 14.3438 66.1364 14.9148 66.6591 15.642C67.1818 16.3636 67.4545 17.1932 67.4773 18.1307H64.9375ZM76.7692 17.9091V19.9545H69.6186V17.9091H76.7692ZM71.5362 14.7727H74.0845V27.1562C74.0845 27.6506 74.1584 28.0227 74.3061 28.2727C74.4538 28.517 74.6442 28.6847 74.8771 28.7756C75.1158 28.8608 75.3743 28.9034 75.6527 28.9034C75.8572 28.9034 76.0362 28.8892 76.1896 28.8608C76.343 28.8324 76.4624 28.8097 76.5476 28.7926L77.0078 30.8977C76.8601 30.9545 76.6499 31.0114 76.3771 31.0682C76.1044 31.1307 75.7635 31.1648 75.3544 31.1705C74.6839 31.1818 74.0589 31.0625 73.4794 30.8125C72.8999 30.5625 72.4311 30.1761 72.0732 29.6534C71.7152 29.1307 71.5362 28.4744 71.5362 27.6847V14.7727ZM83.3977 31.2898C82.5682 31.2898 81.8182 31.1364 81.1477 30.8295C80.4773 30.517 79.946 30.0653 79.554 29.4744C79.1676 28.8835 78.9744 28.1591 78.9744 27.3011C78.9744 26.5625 79.1165 25.9545 79.4006 25.4773C79.6847 25 80.0682 24.6222 80.5511 24.3438C81.0341 24.0653 81.5739 23.8551 82.1705 23.7131C82.767 23.571 83.375 23.4631 83.9943 23.3892C84.7784 23.2983 85.4148 23.2244 85.9034 23.1676C86.392 23.1051 86.7472 23.0057 86.9688 22.8693C87.1903 22.733 87.3011 22.5114 87.3011 22.2045V22.1449C87.3011 21.4006 87.0909 20.8239 86.6705 20.4148C86.2557 20.0057 85.6364 19.8011 84.8125 19.8011C83.9545 19.8011 83.2784 19.9915 82.7841 20.3722C82.2955 20.7472 81.9574 21.1648 81.7699 21.625L79.375 21.0795C79.6591 20.2841 80.0739 19.642 80.6193 19.1534C81.1705 18.6591 81.804 18.3011 82.5199 18.0795C83.2358 17.8523 83.9886 17.7386 84.7784 17.7386C85.3011 17.7386 85.8551 17.8011 86.4403 17.9261C87.0313 18.0455 87.5824 18.267 88.0938 18.5909C88.6108 18.9148 89.0341 19.3778 89.3636 19.9801C89.6932 20.5767 89.858 21.3523 89.858 22.3068V31H87.3693V29.2102H87.267C87.1023 29.5398 86.8551 29.8636 86.5256 30.1818C86.196 30.5 85.7727 30.7642 85.2557 30.9744C84.7386 31.1847 84.1193 31.2898 83.3977 31.2898ZM83.9517 29.2443C84.6563 29.2443 85.2585 29.1051 85.7585 28.8267C86.2642 28.5483 86.6477 28.1847 86.9091 27.7358C87.1761 27.2812 87.3097 26.7955 87.3097 26.2784V24.5909C87.2188 24.6818 87.0426 24.767 86.7812 24.8466C86.5256 24.9205 86.233 24.9858 85.9034 25.0426C85.5739 25.0937 85.2528 25.142 84.9403 25.1875C84.6278 25.2273 84.3665 25.2614 84.1562 25.2898C83.6619 25.3523 83.2102 25.4574 82.8011 25.6051C82.3977 25.7528 82.0739 25.9659 81.8295 26.2443C81.5909 26.517 81.4716 26.8807 81.4716 27.3352C81.4716 27.9659 81.7045 28.4432 82.1705 28.767C82.6364 29.0852 83.2301 29.2443 83.9517 29.2443ZM93.2521 31V17.9091H95.7152V19.9886H95.8516C96.0902 19.2841 96.5107 18.7301 97.1129 18.3267C97.7209 17.9176 98.4084 17.7131 99.1754 17.7131C99.3345 17.7131 99.522 17.7187 99.7379 17.7301C99.9595 17.7415 100.133 17.7557 100.258 17.7727V20.2102C100.156 20.1818 99.9737 20.1506 99.7124 20.1165C99.451 20.0767 99.1896 20.0568 98.9283 20.0568C98.326 20.0568 97.7891 20.1847 97.3175 20.4403C96.8516 20.6903 96.4822 21.0398 96.2095 21.4886C95.9368 21.9318 95.8004 22.4375 95.8004 23.0057V31H93.2521ZM109.347 17.9091V19.9545H102.197V17.9091H109.347ZM104.114 14.7727H106.663V27.1562C106.663 27.6506 106.737 28.0227 106.884 28.2727C107.032 28.517 107.222 28.6847 107.455 28.7756C107.694 28.8608 107.952 28.9034 108.231 28.9034C108.435 28.9034 108.614 28.8892 108.768 28.8608C108.921 28.8324 109.04 28.8097 109.126 28.7926L109.586 30.8977C109.438 30.9545 109.228 31.0114 108.955 31.0682C108.683 31.1307 108.342 31.1648 107.933 31.1705C107.262 31.1818 106.637 31.0625 106.058 30.8125C105.478 30.5625 105.009 30.1761 104.651 29.6534C104.293 29.1307 104.114 28.4744 104.114 27.6847V14.7727ZM120.129 35.9091C119.748 35.9091 119.401 35.8778 119.089 35.8153C118.776 35.7585 118.543 35.696 118.39 35.6278L119.004 33.5398C119.469 33.6648 119.884 33.7188 120.248 33.7017C120.612 33.6847 120.933 33.5483 121.211 33.2926C121.495 33.0369 121.745 32.6193 121.961 32.0398L122.276 31.1705L117.487 17.9091H120.214L123.529 28.0682H123.665L126.981 17.9091H129.717L124.322 32.7472C124.072 33.429 123.754 34.0057 123.367 34.4773C122.981 34.9545 122.521 35.3125 121.987 35.5511C121.452 35.7898 120.833 35.9091 120.129 35.9091ZM137.18 31.2642C135.953 31.2642 134.882 30.983 133.967 30.4205C133.053 29.858 132.342 29.071 131.837 28.0597C131.331 27.0483 131.078 25.8665 131.078 24.5142C131.078 23.1562 131.331 21.9687 131.837 20.9517C132.342 19.9347 133.053 19.1449 133.967 18.5824C134.882 18.0199 135.953 17.7386 137.18 17.7386C138.408 17.7386 139.479 18.0199 140.393 18.5824C141.308 19.1449 142.018 19.9347 142.524 20.9517C143.03 21.9687 143.283 23.1562 143.283 24.5142C143.283 25.8665 143.03 27.0483 142.524 28.0597C142.018 29.071 141.308 29.858 140.393 30.4205C139.479 30.983 138.408 31.2642 137.18 31.2642ZM137.189 29.125C137.984 29.125 138.643 28.9148 139.166 28.4943C139.689 28.0739 140.075 27.5142 140.325 26.8153C140.581 26.1165 140.709 25.3466 140.709 24.5057C140.709 23.6705 140.581 22.9034 140.325 22.2045C140.075 21.5 139.689 20.9347 139.166 20.5085C138.643 20.0824 137.984 19.8693 137.189 19.8693C136.388 19.8693 135.723 20.0824 135.195 20.5085C134.672 20.9347 134.283 21.5 134.027 22.2045C133.777 22.9034 133.652 23.6705 133.652 24.5057C133.652 25.3466 133.777 26.1165 134.027 26.8153C134.283 27.5142 134.672 28.0739 135.195 28.4943C135.723 28.9148 136.388 29.125 137.189 29.125ZM154.42 25.571V17.9091H156.977V31H154.471V28.733H154.335C154.033 29.4318 153.55 30.0142 152.886 30.4801C152.227 30.9403 151.406 31.1705 150.423 31.1705C149.582 31.1705 148.837 30.9858 148.19 30.6165C147.548 30.2415 147.042 29.6875 146.673 28.9545C146.309 28.2216 146.127 27.3153 146.127 26.2358V17.9091H148.675V25.929C148.675 26.821 148.923 27.5312 149.417 28.0597C149.911 28.5881 150.553 28.8523 151.343 28.8523C151.82 28.8523 152.295 28.733 152.766 28.4943C153.244 28.2557 153.638 27.8949 153.951 27.4119C154.269 26.929 154.425 26.3153 154.42 25.571ZM160.401 31V17.9091H162.864V19.9886H163C163.239 19.2841 163.659 18.7301 164.261 18.3267C164.869 17.9176 165.557 17.7131 166.324 17.7131C166.483 17.7131 166.67 17.7187 166.886 17.7301C167.108 17.7415 167.281 17.7557 167.406 17.7727V20.2102C167.304 20.1818 167.122 20.1506 166.861 20.1165C166.599 20.0767 166.338 20.0568 166.077 20.0568C165.474 20.0568 164.938 20.1847 164.466 20.4403C164 20.6903 163.631 21.0398 163.358 21.4886C163.085 21.9318 162.949 22.4375 162.949 23.0057V31H160.401ZM175.963 17.9091H178.511V31.8523C178.511 32.7273 178.352 33.4659 178.034 34.0682C177.722 34.6705 177.256 35.1278 176.636 35.4403C176.023 35.7528 175.264 35.9091 174.361 35.9091C174.27 35.9091 174.185 35.9091 174.105 35.9091C174.02 35.9091 173.932 35.9063 173.841 35.9006V33.7102C173.92 33.7102 173.991 33.7102 174.054 33.7102C174.111 33.7102 174.176 33.7102 174.25 33.7102C174.852 33.7102 175.287 33.5483 175.554 33.2244C175.827 32.9063 175.963 32.4432 175.963 31.8352V17.9091ZM177.224 15.8892C176.781 15.8892 176.401 15.7415 176.082 15.446C175.77 15.1449 175.614 14.7869 175.614 14.3722C175.614 13.9517 175.77 13.5937 176.082 13.2983C176.401 12.9972 176.781 12.8466 177.224 12.8466C177.668 12.8466 178.045 12.9972 178.358 13.2983C178.676 13.5937 178.835 13.9517 178.835 14.3722C178.835 14.7869 178.676 15.1449 178.358 15.446C178.045 15.7415 177.668 15.8892 177.224 15.8892ZM187.454 31.2642C186.227 31.2642 185.156 30.983 184.241 30.4205C183.326 29.858 182.616 29.071 182.11 28.0597C181.604 27.0483 181.352 25.8665 181.352 24.5142C181.352 23.1562 181.604 21.9687 182.11 20.9517C182.616 19.9347 183.326 19.1449 184.241 18.5824C185.156 18.0199 186.227 17.7386 187.454 17.7386C188.681 17.7386 189.752 18.0199 190.667 18.5824C191.582 19.1449 192.292 19.9347 192.798 20.9517C193.303 21.9687 193.556 23.1562 193.556 24.5142C193.556 25.8665 193.303 27.0483 192.798 28.0597C192.292 29.071 191.582 29.858 190.667 30.4205C189.752 30.983 188.681 31.2642 187.454 31.2642ZM187.462 29.125C188.258 29.125 188.917 28.9148 189.44 28.4943C189.962 28.0739 190.349 27.5142 190.599 26.8153C190.854 26.1165 190.982 25.3466 190.982 24.5057C190.982 23.6705 190.854 22.9034 190.599 22.2045C190.349 21.5 189.962 20.9347 189.44 20.5085C188.917 20.0824 188.258 19.8693 187.462 19.8693C186.661 19.8693 185.996 20.0824 185.468 20.5085C184.945 20.9347 184.556 21.5 184.3 22.2045C184.05 22.9034 183.925 23.6705 183.925 24.5057C183.925 25.3466 184.05 26.1165 184.3 26.8153C184.556 27.5142 184.945 28.0739 185.468 28.4943C185.996 28.9148 186.661 29.125 187.462 29.125ZM204.693 25.571V17.9091H207.25V31H204.744V28.733H204.608C204.307 29.4318 203.824 30.0142 203.159 30.4801C202.5 30.9403 201.679 31.1705 200.696 31.1705C199.855 31.1705 199.111 30.9858 198.463 30.6165C197.821 30.2415 197.315 29.6875 196.946 28.9545C196.582 28.2216 196.401 27.3153 196.401 26.2358V17.9091H198.949V25.929C198.949 26.821 199.196 27.5312 199.69 28.0597C200.185 28.5881 200.827 28.8523 201.616 28.8523C202.094 28.8523 202.568 28.733 203.04 28.4943C203.517 28.2557 203.912 27.8949 204.224 27.4119C204.543 26.929 204.699 26.3153 204.693 25.571ZM210.674 31V17.9091H213.137V19.9886H213.273C213.512 19.2841 213.933 18.7301 214.535 18.3267C215.143 17.9176 215.83 17.7131 216.597 17.7131C216.756 17.7131 216.944 17.7187 217.16 17.7301C217.381 17.7415 217.555 17.7557 217.68 17.7727V20.2102C217.577 20.1818 217.396 20.1506 217.134 20.1165C216.873 20.0767 216.612 20.0568 216.35 20.0568C215.748 20.0568 215.211 20.1847 214.739 20.4403C214.273 20.6903 213.904 21.0398 213.631 21.4886C213.359 21.9318 213.222 22.4375 213.222 23.0057V31H210.674ZM222.433 23.2273V31H219.885V17.9091H222.331V20.0398H222.493C222.794 19.3466 223.266 18.7898 223.908 18.3693C224.555 17.9489 225.371 17.7386 226.354 17.7386C227.246 17.7386 228.027 17.9261 228.697 18.3011C229.368 18.6705 229.888 19.2216 230.257 19.9545C230.626 20.6875 230.811 21.5937 230.811 22.6733V31H228.263V22.9801C228.263 22.0312 228.016 21.2898 227.521 20.7557C227.027 20.2159 226.348 19.946 225.484 19.946C224.893 19.946 224.368 20.0739 223.908 20.3295C223.453 20.5852 223.092 20.9602 222.825 21.4545C222.564 21.9432 222.433 22.5341 222.433 23.2273ZM239.871 31.2642C238.581 31.2642 237.47 30.9886 236.538 30.4375C235.612 29.8807 234.896 29.0994 234.391 28.0938C233.891 27.0824 233.641 25.8977 233.641 24.5398C233.641 23.1989 233.891 22.017 234.391 20.9943C234.896 19.9716 235.601 19.1733 236.504 18.5994C237.413 18.0256 238.476 17.7386 239.692 17.7386C240.43 17.7386 241.146 17.8608 241.839 18.1051C242.533 18.3494 243.155 18.733 243.706 19.2557C244.257 19.7784 244.692 20.4574 245.01 21.2926C245.328 22.1222 245.487 23.1307 245.487 24.3182V25.2216H235.081V23.3125H242.99C242.99 22.642 242.854 22.0483 242.581 21.5312C242.308 21.0085 241.925 20.5966 241.43 20.2955C240.942 19.9943 240.368 19.8438 239.709 19.8438C238.993 19.8438 238.368 20.0199 237.834 20.3722C237.305 20.7187 236.896 21.1733 236.607 21.7358C236.322 22.2926 236.18 22.8977 236.18 23.5511V25.0426C236.18 25.9176 236.334 26.6619 236.641 27.2756C236.953 27.8892 237.388 28.358 237.945 28.6818C238.501 29 239.152 29.1591 239.896 29.1591C240.379 29.1591 240.82 29.0909 241.217 28.9545C241.615 28.8125 241.959 28.6023 242.249 28.3239C242.538 28.0455 242.76 27.7017 242.913 27.2926L245.325 27.7273C245.132 28.4375 244.786 29.0597 244.286 29.5938C243.791 30.1222 243.169 30.5341 242.419 30.8295C241.675 31.1193 240.825 31.2642 239.871 31.2642ZM249.55 35.9091C249.17 35.9091 248.823 35.8778 248.511 35.8153C248.198 35.7585 247.965 35.696 247.812 35.6278L248.425 33.5398C248.891 33.6648 249.306 33.7188 249.67 33.7017C250.033 33.6847 250.354 33.5483 250.633 33.2926C250.917 33.0369 251.167 32.6193 251.383 32.0398L251.698 31.1705L246.908 17.9091H249.636L252.951 28.0682H253.087L256.403 17.9091H259.138L253.744 32.7472C253.494 33.429 253.175 34.0057 252.789 34.4773C252.403 34.9545 251.942 35.3125 251.408 35.5511C250.874 35.7898 250.255 35.9091 249.55 35.9091Z" fill="white"/>
</g>
<defs>
<filter id="filter0_d_636_457" x="0" y="0" width="314" height="53" filterUnits="userSpaceOnUse" color-interpolation-filters="sRGB">
<feFlood flood-opacity="0" result="BackgroundImageFix"/>
<feColorMatrix in="SourceAlpha" type="matrix" values="0 0 0 0 0 0 0 0 0 0 0 0 0 0 0 0 0 0 127 0" result="hardAlpha"/>
<feOffset dy="4"/>
<feGaussianBlur stdDeviation="2"/>
<feComposite in2="hardAlpha" operator="out"/>
<feColorMatrix type="matrix" values="0 0 0 0 0 0 0 0 0 0 0 0 0 0 0 0 0 0 0.25 0"/>
<feBlend mode="normal" in2="BackgroundImageFix" result="effect1_dropShadow_636_457"/>
<feBlend mode="normal" in="SourceGraphic" in2="effect1_dropShadow_636_457" result="shape"/>
</filter>
</defs>
</svg>
