<svg width="216" height="53" viewBox="0 0 216 53" fill="none" xmlns="http://www.w3.org/2000/svg">
<g filter="url(#filter0_d_636_473)">
<rect x="4" width="208" height="45" rx="8" fill="#3D8BFD" shape-rendering="crispEdges"/>
<path d="M39.8352 31L34.9943 13.5455H37.7642L41.1648 27.0625H41.3267L44.8636 13.5455H47.608L51.1449 27.071H51.3068L54.6989 13.5455H57.4773L52.6278 31H49.9773L46.304 17.9261H46.1676L42.4943 31H39.8352ZM62.1946 31.2898C61.3651 31.2898 60.6151 31.1364 59.9446 30.8295C59.2741 30.517 58.7429 30.0653 58.3509 29.4744C57.9645 28.8835 57.7713 28.1591 57.7713 27.3011C57.7713 26.5625 57.9134 25.9545 58.1974 25.4773C58.4815 25 58.8651 24.6222 59.348 24.3438C59.831 24.0653 60.3707 23.8551 60.9673 23.7131C61.5639 23.571 62.1719 23.4631 62.7912 23.3892C63.5753 23.2983 64.2116 23.2244 64.7003 23.1676C65.1889 23.1051 65.544 23.0057 65.7656 22.8693C65.9872 22.733 66.098 22.5114 66.098 22.2045V22.1449C66.098 21.4006 65.8878 20.8239 65.4673 20.4148C65.0526 20.0057 64.4332 19.8011 63.6094 19.8011C62.7514 19.8011 62.0753 19.9915 61.581 20.3722C61.0923 20.7472 60.7543 21.1648 60.5668 21.625L58.1719 21.0795C58.456 20.2841 58.8707 19.642 59.4162 19.1534C59.9673 18.6591 60.6009 18.3011 61.3168 18.0795C62.0327 17.8523 62.7855 17.7386 63.5753 17.7386C64.098 17.7386 64.652 17.8011 65.2372 17.9261C65.8281 18.0455 66.3793 18.267 66.8906 18.5909C67.4077 18.9148 67.831 19.3778 68.1605 19.9801C68.4901 20.5767 68.6548 21.3523 68.6548 22.3068V31H66.1662V29.2102H66.0639C65.8991 29.5398 65.652 29.8636 65.3224 30.1818C64.9929 30.5 64.5696 30.7642 64.0526 30.9744C63.5355 31.1847 62.9162 31.2898 62.1946 31.2898ZM62.7486 29.2443C63.4531 29.2443 64.0554 29.1051 64.5554 28.8267C65.0611 28.5483 65.4446 28.1847 65.706 27.7358C65.973 27.2812 66.1065 26.7955 66.1065 26.2784V24.5909C66.0156 24.6818 65.8395 24.767 65.5781 24.8466C65.3224 24.9205 65.0298 24.9858 64.7003 25.0426C64.3707 25.0937 64.0497 25.142 63.7372 25.1875C63.4247 25.2273 63.1634 25.2614 62.9531 25.2898C62.4588 25.3523 62.0071 25.4574 61.598 25.6051C61.1946 25.7528 60.8707 25.9659 60.6264 26.2443C60.3878 26.517 60.2685 26.8807 60.2685 27.3352C60.2685 27.9659 60.5014 28.4432 60.9673 28.767C61.4332 29.0852 62.027 29.2443 62.7486 29.2443ZM78.1598 17.9091V19.9545H71.0092V17.9091H78.1598ZM72.9268 14.7727H75.4751V27.1562C75.4751 27.6506 75.549 28.0227 75.6967 28.2727C75.8445 28.517 76.0348 28.6847 76.2678 28.7756C76.5064 28.8608 76.7649 28.9034 77.0433 28.9034C77.2479 28.9034 77.4268 28.8892 77.5803 28.8608C77.7337 28.8324 77.853 28.8097 77.9382 28.7926L78.3984 30.8977C78.2507 30.9545 78.0405 31.0114 77.7678 31.0682C77.495 31.1307 77.1541 31.1648 76.745 31.1705C76.0746 31.1818 75.4496 31.0625 74.87 30.8125C74.2905 30.5625 73.8217 30.1761 73.4638 29.6534C73.1058 29.1307 72.9268 28.4744 72.9268 27.6847V14.7727ZM86.3523 31.2642C85.0852 31.2642 83.9943 30.9773 83.0795 30.4034C82.1705 29.8239 81.4716 29.0256 80.983 28.0085C80.4943 26.9915 80.25 25.8267 80.25 24.5142C80.25 23.1847 80.5 22.0114 81 20.9943C81.5 19.9716 82.2045 19.1733 83.1136 18.5994C84.0227 18.0256 85.0938 17.7386 86.3267 17.7386C87.321 17.7386 88.2074 17.9233 88.9858 18.2926C89.7642 18.6562 90.392 19.1676 90.8693 19.8267C91.3523 20.4858 91.6392 21.2557 91.7301 22.1364H89.25C89.1136 21.5227 88.8011 20.9943 88.3125 20.5511C87.8295 20.108 87.1818 19.8864 86.3693 19.8864C85.6591 19.8864 85.0369 20.0739 84.5028 20.4489C83.9744 20.8182 83.5625 21.3466 83.267 22.0341C82.9716 22.7159 82.8239 23.5227 82.8239 24.4545C82.8239 25.4091 82.9688 26.233 83.2585 26.9261C83.5483 27.6193 83.9574 28.1562 84.4858 28.5369C85.0199 28.9176 85.6477 29.108 86.3693 29.108C86.8523 29.108 87.2898 29.0199 87.6818 28.8438C88.0795 28.6619 88.4119 28.4034 88.679 28.0682C88.9517 27.733 89.142 27.3295 89.25 26.858H91.7301C91.6392 27.7045 91.3636 28.4602 90.9034 29.125C90.4432 29.7898 89.8267 30.3125 89.054 30.6932C88.2869 31.0739 87.3864 31.2642 86.3523 31.2642ZM97.0036 23.2273V31H94.4553V13.5455H96.9695V20.0398H97.1314C97.4382 19.3352 97.907 18.7756 98.5376 18.3608C99.1683 17.946 99.9922 17.7386 101.009 17.7386C101.907 17.7386 102.691 17.9233 103.362 18.2926C104.038 18.6619 104.56 19.2131 104.93 19.946C105.305 20.6733 105.492 21.5824 105.492 22.6733V31H102.944V22.9801C102.944 22.0199 102.697 21.2756 102.202 20.7472C101.708 20.2131 101.021 19.946 100.14 19.946C99.5376 19.946 98.9979 20.0739 98.5206 20.3295C98.049 20.5852 97.6768 20.9602 97.4041 21.4545C97.1371 21.9432 97.0036 22.5341 97.0036 23.2273ZM121.099 31H115.449V13.5455H121.278C122.989 13.5455 124.457 13.8949 125.685 14.5938C126.912 15.2869 127.852 16.2841 128.506 17.5852C129.165 18.8807 129.494 20.4347 129.494 22.2472C129.494 24.0653 129.162 25.6278 128.497 26.9347C127.838 28.2415 126.884 29.2472 125.634 29.9517C124.384 30.6506 122.872 31 121.099 31ZM118.082 28.6989H120.955C122.284 28.6989 123.389 28.4489 124.27 27.9489C125.151 27.4432 125.81 26.7131 126.247 25.7585C126.685 24.7983 126.903 23.6278 126.903 22.2472C126.903 20.8778 126.685 19.7159 126.247 18.7614C125.815 17.8068 125.17 17.0824 124.312 16.5881C123.455 16.0937 122.389 15.8466 121.116 15.8466H118.082V28.6989ZM138.207 31.2642C136.917 31.2642 135.806 30.9886 134.874 30.4375C133.948 29.8807 133.232 29.0994 132.727 28.0938C132.227 27.0824 131.977 25.8977 131.977 24.5398C131.977 23.1989 132.227 22.017 132.727 20.9943C133.232 19.9716 133.937 19.1733 134.84 18.5994C135.749 18.0256 136.812 17.7386 138.028 17.7386C138.766 17.7386 139.482 17.8608 140.175 18.1051C140.869 18.3494 141.491 18.733 142.042 19.2557C142.593 19.7784 143.028 20.4574 143.346 21.2926C143.664 22.1222 143.823 23.1307 143.823 24.3182V25.2216H133.417V23.3125H141.326C141.326 22.642 141.19 22.0483 140.917 21.5312C140.644 21.0085 140.261 20.5966 139.766 20.2955C139.278 19.9943 138.704 19.8438 138.045 19.8438C137.329 19.8438 136.704 20.0199 136.17 20.3722C135.641 20.7187 135.232 21.1733 134.942 21.7358C134.658 22.2926 134.516 22.8977 134.516 23.5511V25.0426C134.516 25.9176 134.67 26.6619 134.977 27.2756C135.289 27.8892 135.724 28.358 136.281 28.6818C136.837 29 137.488 29.1591 138.232 29.1591C138.715 29.1591 139.156 29.0909 139.553 28.9545C139.951 28.8125 140.295 28.6023 140.585 28.3239C140.874 28.0455 141.096 27.7017 141.249 27.2926L143.661 27.7273C143.468 28.4375 143.121 29.0597 142.621 29.5938C142.127 30.1222 141.505 30.5341 140.755 30.8295C140.011 31.1193 139.161 31.2642 138.207 31.2642ZM146.651 31V17.9091H149.097V20.0398H149.259C149.531 19.3182 149.977 18.7557 150.597 18.3523C151.216 17.9432 151.957 17.7386 152.821 17.7386C153.696 17.7386 154.429 17.9432 155.02 18.3523C155.616 18.7614 156.057 19.3239 156.341 20.0398H156.477C156.79 19.3409 157.287 18.7841 157.969 18.3693C158.651 17.9489 159.463 17.7386 160.406 17.7386C161.594 17.7386 162.562 18.1108 163.312 18.8551C164.068 19.5994 164.446 20.7216 164.446 22.2216V31H161.898V22.4602C161.898 21.5739 161.656 20.9318 161.173 20.5341C160.69 20.1364 160.114 19.9375 159.443 19.9375C158.614 19.9375 157.969 20.1932 157.509 20.7045C157.048 21.2102 156.818 21.8608 156.818 22.6562V31H154.278V22.2983C154.278 21.5881 154.057 21.017 153.614 20.5852C153.17 20.1534 152.594 19.9375 151.884 19.9375C151.401 19.9375 150.955 20.0653 150.545 20.321C150.142 20.571 149.815 20.9205 149.565 21.3693C149.321 21.8182 149.199 22.3381 149.199 22.929V31H146.651ZM173.376 31.2642C172.148 31.2642 171.077 30.983 170.163 30.4205C169.248 29.858 168.538 29.071 168.032 28.0597C167.526 27.0483 167.273 25.8665 167.273 24.5142C167.273 23.1562 167.526 21.9687 168.032 20.9517C168.538 19.9347 169.248 19.1449 170.163 18.5824C171.077 18.0199 172.148 17.7386 173.376 17.7386C174.603 17.7386 175.674 18.0199 176.589 18.5824C177.504 19.1449 178.214 19.9347 178.719 20.9517C179.225 21.9687 179.478 23.1562 179.478 24.5142C179.478 25.8665 179.225 27.0483 178.719 28.0597C178.214 29.071 177.504 29.858 176.589 30.4205C175.674 30.983 174.603 31.2642 173.376 31.2642ZM173.384 29.125C174.18 29.125 174.839 28.9148 175.362 28.4943C175.884 28.0739 176.271 27.5142 176.521 26.8153C176.776 26.1165 176.904 25.3466 176.904 24.5057C176.904 23.6705 176.776 22.9034 176.521 22.2045C176.271 21.5 175.884 20.9347 175.362 20.5085C174.839 20.0824 174.18 19.8693 173.384 19.8693C172.583 19.8693 171.918 20.0824 171.39 20.5085C170.867 20.9347 170.478 21.5 170.222 22.2045C169.972 22.9034 169.847 23.6705 169.847 24.5057C169.847 25.3466 169.972 26.1165 170.222 26.8153C170.478 27.5142 170.867 28.0739 171.39 28.4943C171.918 28.9148 172.583 29.125 173.384 29.125Z" fill="white"/>
</g>
<defs>
<filter id="filter0_d_636_473" x="0" y="0" width="216" height="53" filterUnits="userSpaceOnUse" color-interpolation-filters="sRGB">
<feFlood flood-opacity="0" result="BackgroundImageFix"/>
<feColorMatrix in="SourceAlpha" type="matrix" values="0 0 0 0 0 0 0 0 0 0 0 0 0 0 0 0 0 0 127 0" result="hardAlpha"/>
<feOffset dy="4"/>
<feGaussianBlur stdDeviation="2"/>
<feComposite in2="hardAlpha" operator="out"/>
<feColorMatrix type="matrix" values="0 0 0 0 0 0 0 0 0 0 0 0 0 0 0 0 0 0 0.25 0"/>
<feBlend mode="normal" in2="BackgroundImageFix" result="effect1_dropShadow_636_473"/>
<feBlend mode="normal" in="SourceGraphic" in2="effect1_dropShadow_636_473" result="shape"/>
</filter>
</defs>
</svg>
