<svg width="166" height="45" viewBox="0 0 166 45" fill="none" xmlns="http://www.w3.org/2000/svg">
<rect width="166" height="45" rx="8" fill="#9EC5FE"/>
<path d="M29.7301 19.0597C29.5653 18.5426 29.3438 18.0795 29.0653 17.6705C28.7926 17.2557 28.4659 16.9034 28.0852 16.6136C27.7045 16.3182 27.2699 16.0937 26.7812 15.9403C26.2983 15.7869 25.767 15.7102 25.1875 15.7102C24.2045 15.7102 23.3182 15.9631 22.5284 16.4688C21.7386 16.9744 21.1136 17.7159 20.6534 18.6932C20.1989 19.6648 19.9716 20.8551 19.9716 22.2642C19.9716 23.679 20.2017 24.875 20.6619 25.8523C21.1222 26.8295 21.7528 27.571 22.554 28.0767C23.3551 28.5824 24.267 28.8352 25.2898 28.8352C26.2386 28.8352 27.0653 28.642 27.7699 28.2557C28.4801 27.8693 29.0284 27.3239 29.4148 26.6193C29.8068 25.9091 30.0028 25.0739 30.0028 24.1136L30.6847 24.2415H25.6903V22.0682H32.5511V24.054C32.5511 25.5199 32.2386 26.7926 31.6136 27.8722C30.9943 28.946 30.1364 29.7756 29.0398 30.3608C27.9489 30.946 26.6989 31.2386 25.2898 31.2386C23.7102 31.2386 22.3239 30.875 21.1307 30.1477C19.9432 29.4205 19.017 28.3892 18.3523 27.054C17.6875 25.7131 17.3551 24.1222 17.3551 22.2812C17.3551 20.8892 17.5483 19.6392 17.9347 18.5312C18.321 17.4233 18.8636 16.483 19.5625 15.7102C20.267 14.9318 21.0938 14.3381 22.0426 13.929C22.9972 13.5142 24.0398 13.3068 25.1705 13.3068C26.1136 13.3068 26.9915 13.446 27.804 13.7244C28.6222 14.0028 29.3494 14.3977 29.9858 14.9091C30.6278 15.4205 31.1591 16.0284 31.5795 16.733C32 17.4318 32.2841 18.2074 32.4318 19.0597H29.7301ZM41.3317 31.2642C40.0419 31.2642 38.9311 30.9886 37.9993 30.4375C37.0732 29.8807 36.3572 29.0994 35.8516 28.0938C35.3516 27.0824 35.1016 25.8977 35.1016 24.5398C35.1016 23.1989 35.3516 22.017 35.8516 20.9943C36.3572 19.9716 37.0618 19.1733 37.9652 18.5994C38.8743 18.0256 39.9368 17.7386 41.1527 17.7386C41.8913 17.7386 42.6072 17.8608 43.3004 18.1051C43.9936 18.3494 44.6158 18.733 45.1669 19.2557C45.718 19.7784 46.1527 20.4574 46.4709 21.2926C46.7891 22.1222 46.9482 23.1307 46.9482 24.3182V25.2216H36.5419V23.3125H44.451C44.451 22.642 44.3146 22.0483 44.0419 21.5312C43.7692 21.0085 43.3857 20.5966 42.8913 20.2955C42.4027 19.9943 41.8288 19.8438 41.1697 19.8438C40.4538 19.8438 39.8288 20.0199 39.2947 20.3722C38.7663 20.7187 38.3572 21.1733 38.0675 21.7358C37.7834 22.2926 37.6413 22.8977 37.6413 23.5511V25.0426C37.6413 25.9176 37.7947 26.6619 38.1016 27.2756C38.4141 27.8892 38.8487 28.358 39.4055 28.6818C39.9624 29 40.6129 29.1591 41.3572 29.1591C41.8402 29.1591 42.2805 29.0909 42.6783 28.9545C43.076 28.8125 43.4197 28.6023 43.7095 28.3239C43.9993 28.0455 44.2209 27.7017 44.3743 27.2926L46.7862 27.7273C46.593 28.4375 46.2464 29.0597 45.7464 29.5938C45.2521 30.1222 44.63 30.5341 43.88 30.8295C43.1357 31.1193 42.2862 31.2642 41.3317 31.2642ZM55.8864 17.9091V19.9545H48.7358V17.9091H55.8864ZM50.6534 14.7727H53.2017V27.1562C53.2017 27.6506 53.2756 28.0227 53.4233 28.2727C53.571 28.517 53.7614 28.6847 53.9943 28.7756C54.233 28.8608 54.4915 28.9034 54.7699 28.9034C54.9744 28.9034 55.1534 28.8892 55.3068 28.8608C55.4602 28.8324 55.5795 28.8097 55.6648 28.7926L56.125 30.8977C55.9773 30.9545 55.767 31.0114 55.4943 31.0682C55.2216 31.1307 54.8807 31.1648 54.4716 31.1705C53.8011 31.1818 53.1761 31.0625 52.5966 30.8125C52.017 30.5625 51.5483 30.1761 51.1903 29.6534C50.8324 29.1307 50.6534 28.4744 50.6534 27.6847V14.7727ZM74.7812 18.1307C74.6903 17.3239 74.3153 16.6989 73.6562 16.2557C72.9972 15.8068 72.1676 15.5824 71.1676 15.5824C70.4517 15.5824 69.8324 15.696 69.3097 15.9233C68.7869 16.1449 68.3807 16.4517 68.0909 16.8438C67.8068 17.2301 67.6648 17.6705 67.6648 18.1648C67.6648 18.5795 67.7614 18.9375 67.9545 19.2386C68.1534 19.5398 68.4119 19.7926 68.7301 19.9972C69.054 20.196 69.4006 20.3636 69.7699 20.5C70.1392 20.6307 70.4943 20.7386 70.8352 20.8239L72.5398 21.267C73.0966 21.4034 73.6676 21.5881 74.2528 21.821C74.8381 22.054 75.3807 22.3608 75.8807 22.7415C76.3807 23.1222 76.7841 23.5938 77.0909 24.1562C77.4034 24.7188 77.5597 25.392 77.5597 26.1761C77.5597 27.1648 77.304 28.0426 76.7926 28.8097C76.2869 29.5767 75.5511 30.1818 74.5852 30.625C73.625 31.0682 72.4631 31.2898 71.0994 31.2898C69.7926 31.2898 68.6619 31.0824 67.7074 30.6676C66.7528 30.2528 66.0057 29.6648 65.4659 28.9034C64.9261 28.1364 64.6278 27.2273 64.571 26.1761H67.2131C67.2642 26.8068 67.4688 27.3324 67.8267 27.7528C68.1903 28.1676 68.6534 28.4773 69.2159 28.6818C69.7841 28.8807 70.4062 28.9801 71.0824 28.9801C71.8267 28.9801 72.4886 28.8636 73.0682 28.6307C73.6534 28.392 74.1136 28.0625 74.4489 27.642C74.7841 27.2159 74.9517 26.7187 74.9517 26.1506C74.9517 25.6335 74.804 25.2102 74.5085 24.8807C74.2188 24.5511 73.8239 24.2784 73.3239 24.0625C72.8295 23.8466 72.2699 23.6562 71.6449 23.4915L69.5824 22.929C68.1847 22.5483 67.0767 21.9886 66.2585 21.25C65.446 20.5114 65.0398 19.5341 65.0398 18.3182C65.0398 17.3125 65.3125 16.4347 65.858 15.6847C66.4034 14.9347 67.142 14.3523 68.0739 13.9375C69.0057 13.517 70.0568 13.3068 71.2273 13.3068C72.4091 13.3068 73.4517 13.5142 74.3551 13.929C75.2642 14.3438 75.9801 14.9148 76.5028 15.642C77.0256 16.3636 77.2983 17.1932 77.321 18.1307H74.7812ZM86.6129 17.9091V19.9545H79.4624V17.9091H86.6129ZM81.38 14.7727H83.9283V27.1562C83.9283 27.6506 84.0021 28.0227 84.1499 28.2727C84.2976 28.517 84.4879 28.6847 84.7209 28.7756C84.9595 28.8608 85.218 28.9034 85.4964 28.9034C85.701 28.9034 85.88 28.8892 86.0334 28.8608C86.1868 28.8324 86.3061 28.8097 86.3913 28.7926L86.8516 30.8977C86.7038 30.9545 86.4936 31.0114 86.2209 31.0682C85.9482 31.1307 85.6072 31.1648 85.1982 31.1705C84.5277 31.1818 83.9027 31.0625 83.3232 30.8125C82.7436 30.5625 82.2749 30.1761 81.9169 29.6534C81.5589 29.1307 81.38 28.4744 81.38 27.6847V14.7727ZM93.2415 31.2898C92.4119 31.2898 91.6619 31.1364 90.9915 30.8295C90.321 30.517 89.7898 30.0653 89.3977 29.4744C89.0114 28.8835 88.8182 28.1591 88.8182 27.3011C88.8182 26.5625 88.9602 25.9545 89.2443 25.4773C89.5284 25 89.9119 24.6222 90.3949 24.3438C90.8778 24.0653 91.4176 23.8551 92.0142 23.7131C92.6108 23.571 93.2188 23.4631 93.8381 23.3892C94.6222 23.2983 95.2585 23.2244 95.7472 23.1676C96.2358 23.1051 96.5909 23.0057 96.8125 22.8693C97.0341 22.733 97.1449 22.5114 97.1449 22.2045V22.1449C97.1449 21.4006 96.9347 20.8239 96.5142 20.4148C96.0994 20.0057 95.4801 19.8011 94.6562 19.8011C93.7983 19.8011 93.1222 19.9915 92.6278 20.3722C92.1392 20.7472 91.8011 21.1648 91.6136 21.625L89.2188 21.0795C89.5028 20.2841 89.9176 19.642 90.4631 19.1534C91.0142 18.6591 91.6477 18.3011 92.3636 18.0795C93.0795 17.8523 93.8324 17.7386 94.6222 17.7386C95.1449 17.7386 95.6989 17.8011 96.2841 17.9261C96.875 18.0455 97.4261 18.267 97.9375 18.5909C98.4545 18.9148 98.8778 19.3778 99.2074 19.9801C99.5369 20.5767 99.7017 21.3523 99.7017 22.3068V31H97.2131V29.2102H97.1108C96.946 29.5398 96.6989 29.8636 96.3693 30.1818C96.0398 30.5 95.6165 30.7642 95.0994 30.9744C94.5824 31.1847 93.9631 31.2898 93.2415 31.2898ZM93.7955 29.2443C94.5 29.2443 95.1023 29.1051 95.6023 28.8267C96.108 28.5483 96.4915 28.1847 96.7528 27.7358C97.0199 27.2812 97.1534 26.7955 97.1534 26.2784V24.5909C97.0625 24.6818 96.8864 24.767 96.625 24.8466C96.3693 24.9205 96.0767 24.9858 95.7472 25.0426C95.4176 25.0937 95.0966 25.142 94.7841 25.1875C94.4716 25.2273 94.2102 25.2614 94 25.2898C93.5057 25.3523 93.054 25.4574 92.6449 25.6051C92.2415 25.7528 91.9176 25.9659 91.6733 26.2443C91.4347 26.517 91.3153 26.8807 91.3153 27.3352C91.3153 27.9659 91.5483 28.4432 92.0142 28.767C92.4801 29.0852 93.0739 29.2443 93.7955 29.2443ZM103.096 31V17.9091H105.559V19.9886H105.695C105.934 19.2841 106.354 18.7301 106.957 18.3267C107.565 17.9176 108.252 17.7131 109.019 17.7131C109.178 17.7131 109.366 17.7187 109.582 17.7301C109.803 17.7415 109.977 17.7557 110.102 17.7727V20.2102C109.999 20.1818 109.817 20.1506 109.556 20.1165C109.295 20.0767 109.033 20.0568 108.772 20.0568C108.17 20.0568 107.633 20.1847 107.161 20.4403C106.695 20.6903 106.326 21.0398 106.053 21.4886C105.781 21.9318 105.644 22.4375 105.644 23.0057V31H103.096ZM119.191 17.9091V19.9545H112.04V17.9091H119.191ZM113.958 14.7727H116.506V27.1562C116.506 27.6506 116.58 28.0227 116.728 28.2727C116.876 28.517 117.066 28.6847 117.299 28.7756C117.538 28.8608 117.796 28.9034 118.075 28.9034C118.279 28.9034 118.458 28.8892 118.612 28.8608C118.765 28.8324 118.884 28.8097 118.969 28.7926L119.43 30.8977C119.282 30.9545 119.072 31.0114 118.799 31.0682C118.526 31.1307 118.185 31.1648 117.776 31.1705C117.106 31.1818 116.481 31.0625 115.901 30.8125C115.322 30.5625 114.853 30.1761 114.495 29.6534C114.137 29.1307 113.958 28.4744 113.958 27.6847V14.7727ZM127.511 31.2642C126.222 31.2642 125.111 30.9886 124.179 30.4375C123.253 29.8807 122.537 29.0994 122.031 28.0938C121.531 27.0824 121.281 25.8977 121.281 24.5398C121.281 23.1989 121.531 22.017 122.031 20.9943C122.537 19.9716 123.241 19.1733 124.145 18.5994C125.054 18.0256 126.116 17.7386 127.332 17.7386C128.071 17.7386 128.787 17.8608 129.48 18.1051C130.173 18.3494 130.795 18.733 131.347 19.2557C131.898 19.7784 132.332 20.4574 132.651 21.2926C132.969 22.1222 133.128 23.1307 133.128 24.3182V25.2216H122.722V23.3125H130.631C130.631 22.642 130.494 22.0483 130.222 21.5312C129.949 21.0085 129.565 20.5966 129.071 20.2955C128.582 19.9943 128.009 19.8438 127.349 19.8438C126.634 19.8438 126.009 20.0199 125.474 20.3722C124.946 20.7187 124.537 21.1733 124.247 21.7358C123.963 22.2926 123.821 22.8977 123.821 23.5511V25.0426C123.821 25.9176 123.974 26.6619 124.281 27.2756C124.594 27.8892 125.028 28.358 125.585 28.6818C126.142 29 126.793 29.1591 127.537 29.1591C128.02 29.1591 128.46 29.0909 128.858 28.9545C129.256 28.8125 129.599 28.6023 129.889 28.3239C130.179 28.0455 130.401 27.7017 130.554 27.2926L132.966 27.7273C132.773 28.4375 132.426 29.0597 131.926 29.5938C131.432 30.1222 130.81 30.5341 130.06 30.8295C129.315 31.1193 128.466 31.2642 127.511 31.2642ZM140.856 31.2557C139.799 31.2557 138.856 30.9858 138.026 30.446C137.202 29.9006 136.555 29.125 136.083 28.1193C135.617 27.108 135.384 25.8949 135.384 24.4801C135.384 23.0653 135.62 21.8551 136.092 20.8494C136.569 19.8437 137.222 19.0739 138.052 18.5398C138.881 18.0057 139.822 17.7386 140.873 17.7386C141.685 17.7386 142.339 17.875 142.833 18.1477C143.333 18.4148 143.719 18.7273 143.992 19.0852C144.271 19.4432 144.487 19.7585 144.64 20.0312H144.793V13.5455H147.342V31H144.853V28.9631H144.64C144.487 29.2415 144.265 29.5597 143.975 29.9176C143.691 30.2756 143.299 30.5881 142.799 30.8551C142.299 31.1222 141.651 31.2557 140.856 31.2557ZM141.418 29.0824C142.151 29.0824 142.771 28.8892 143.276 28.5028C143.788 28.1108 144.174 27.5682 144.435 26.875C144.702 26.1818 144.836 25.375 144.836 24.4545C144.836 23.5455 144.705 22.75 144.444 22.0682C144.183 21.3864 143.799 20.8551 143.293 20.4744C142.788 20.0937 142.163 19.9034 141.418 19.9034C140.651 19.9034 140.012 20.1023 139.501 20.5C138.989 20.8977 138.603 21.4403 138.342 22.1278C138.086 22.8153 137.958 23.5909 137.958 24.4545C137.958 25.3295 138.089 26.1165 138.35 26.8153C138.612 27.5142 138.998 28.0682 139.509 28.4773C140.026 28.8807 140.663 29.0824 141.418 29.0824Z" fill="white"/>
</svg>
