<svg width="216" height="53" viewBox="0 0 216 53" fill="none" xmlns="http://www.w3.org/2000/svg">
<g filter="url(#filter0_d_636_467)">
<rect x="4" width="208" height="45" rx="8" fill="#9EC5FE" shape-rendering="crispEdges"/>
<path d="M29.075 13C22.662 13.151 20.5 15.535 20.5 22.242C20.5 29.179 22.813 31.492 29.75 31.492C36.687 31.492 39 29.179 39 22.242C39 16.199 37.245 13.665 32.205 13.112" fill="#084298"/>
<path fill-rule="evenodd" clip-rule="evenodd" d="M33.1659 22.3523C33.1659 21.4483 28.5819 18.5562 28.0619 19.0762C27.5429 19.5962 27.4919 25.0593 28.0619 25.6283C28.6329 26.1993 33.1659 23.2563 33.1659 22.3523Z" fill="#9EC5FE"/>
<path d="M56.8352 31L51.9943 13.5455H54.7642L58.1648 27.0625H58.3267L61.8636 13.5455H64.608L68.1449 27.071H68.3068L71.6989 13.5455H74.4773L69.6278 31H66.9773L63.304 17.9261H63.1676L59.4943 31H56.8352ZM79.1946 31.2898C78.3651 31.2898 77.6151 31.1364 76.9446 30.8295C76.2741 30.517 75.7429 30.0653 75.3509 29.4744C74.9645 28.8835 74.7713 28.1591 74.7713 27.3011C74.7713 26.5625 74.9134 25.9545 75.1974 25.4773C75.4815 25 75.8651 24.6222 76.348 24.3438C76.831 24.0653 77.3707 23.8551 77.9673 23.7131C78.5639 23.571 79.1719 23.4631 79.7912 23.3892C80.5753 23.2983 81.2116 23.2244 81.7003 23.1676C82.1889 23.1051 82.544 23.0057 82.7656 22.8693C82.9872 22.733 83.098 22.5114 83.098 22.2045V22.1449C83.098 21.4006 82.8878 20.8239 82.4673 20.4148C82.0526 20.0057 81.4332 19.8011 80.6094 19.8011C79.7514 19.8011 79.0753 19.9915 78.581 20.3722C78.0923 20.7472 77.7543 21.1648 77.5668 21.625L75.1719 21.0795C75.456 20.2841 75.8707 19.642 76.4162 19.1534C76.9673 18.6591 77.6009 18.3011 78.3168 18.0795C79.0327 17.8523 79.7855 17.7386 80.5753 17.7386C81.098 17.7386 81.652 17.8011 82.2372 17.9261C82.8281 18.0455 83.3793 18.267 83.8906 18.5909C84.4077 18.9148 84.831 19.3778 85.1605 19.9801C85.4901 20.5767 85.6548 21.3523 85.6548 22.3068V31H83.1662V29.2102H83.0639C82.8991 29.5398 82.652 29.8636 82.3224 30.1818C81.9929 30.5 81.5696 30.7642 81.0526 30.9744C80.5355 31.1847 79.9162 31.2898 79.1946 31.2898ZM79.7486 29.2443C80.4531 29.2443 81.0554 29.1051 81.5554 28.8267C82.0611 28.5483 82.4446 28.1847 82.706 27.7358C82.973 27.2812 83.1065 26.7955 83.1065 26.2784V24.5909C83.0156 24.6818 82.8395 24.767 82.5781 24.8466C82.3224 24.9205 82.0298 24.9858 81.7003 25.0426C81.3707 25.0937 81.0497 25.142 80.7372 25.1875C80.4247 25.2273 80.1634 25.2614 79.9531 25.2898C79.4588 25.3523 79.0071 25.4574 78.598 25.6051C78.1946 25.7528 77.8707 25.9659 77.6264 26.2443C77.3878 26.517 77.2685 26.8807 77.2685 27.3352C77.2685 27.9659 77.5014 28.4432 77.9673 28.767C78.4332 29.0852 79.027 29.2443 79.7486 29.2443ZM95.1598 17.9091V19.9545H88.0092V17.9091H95.1598ZM89.9268 14.7727H92.4751V27.1562C92.4751 27.6506 92.549 28.0227 92.6967 28.2727C92.8445 28.517 93.0348 28.6847 93.2678 28.7756C93.5064 28.8608 93.7649 28.9034 94.0433 28.9034C94.2479 28.9034 94.4268 28.8892 94.5803 28.8608C94.7337 28.8324 94.853 28.8097 94.9382 28.7926L95.3984 30.8977C95.2507 30.9545 95.0405 31.0114 94.7678 31.0682C94.495 31.1307 94.1541 31.1648 93.745 31.1705C93.0746 31.1818 92.4496 31.0625 91.87 30.8125C91.2905 30.5625 90.8217 30.1761 90.4638 29.6534C90.1058 29.1307 89.9268 28.4744 89.9268 27.6847V14.7727ZM103.352 31.2642C102.085 31.2642 100.994 30.9773 100.08 30.4034C99.1705 29.8239 98.4716 29.0256 97.983 28.0085C97.4943 26.9915 97.25 25.8267 97.25 24.5142C97.25 23.1847 97.5 22.0114 98 20.9943C98.5 19.9716 99.2045 19.1733 100.114 18.5994C101.023 18.0256 102.094 17.7386 103.327 17.7386C104.321 17.7386 105.207 17.9233 105.986 18.2926C106.764 18.6562 107.392 19.1676 107.869 19.8267C108.352 20.4858 108.639 21.2557 108.73 22.1364H106.25C106.114 21.5227 105.801 20.9943 105.312 20.5511C104.83 20.108 104.182 19.8864 103.369 19.8864C102.659 19.8864 102.037 20.0739 101.503 20.4489C100.974 20.8182 100.563 21.3466 100.267 22.0341C99.9716 22.7159 99.8239 23.5227 99.8239 24.4545C99.8239 25.4091 99.9688 26.233 100.259 26.9261C100.548 27.6193 100.957 28.1562 101.486 28.5369C102.02 28.9176 102.648 29.108 103.369 29.108C103.852 29.108 104.29 29.0199 104.682 28.8438C105.08 28.6619 105.412 28.4034 105.679 28.0682C105.952 27.733 106.142 27.3295 106.25 26.858H108.73C108.639 27.7045 108.364 28.4602 107.903 29.125C107.443 29.7898 106.827 30.3125 106.054 30.6932C105.287 31.0739 104.386 31.2642 103.352 31.2642ZM114.004 23.2273V31H111.455V13.5455H113.969V20.0398H114.131C114.438 19.3352 114.907 18.7756 115.538 18.3608C116.168 17.946 116.992 17.7386 118.009 17.7386C118.907 17.7386 119.691 17.9233 120.362 18.2926C121.038 18.6619 121.56 19.2131 121.93 19.946C122.305 20.6733 122.492 21.5824 122.492 22.6733V31H119.944V22.9801C119.944 22.0199 119.697 21.2756 119.202 20.7472C118.708 20.2131 118.021 19.946 117.14 19.946C116.538 19.946 115.998 20.0739 115.521 20.3295C115.049 20.5852 114.677 20.9602 114.404 21.4545C114.137 21.9432 114.004 22.5341 114.004 23.2273ZM138.099 31H132.449V13.5455H138.278C139.989 13.5455 141.457 13.8949 142.685 14.5938C143.912 15.2869 144.852 16.2841 145.506 17.5852C146.165 18.8807 146.494 20.4347 146.494 22.2472C146.494 24.0653 146.162 25.6278 145.497 26.9347C144.838 28.2415 143.884 29.2472 142.634 29.9517C141.384 30.6506 139.872 31 138.099 31ZM135.082 28.6989H137.955C139.284 28.6989 140.389 28.4489 141.27 27.9489C142.151 27.4432 142.81 26.7131 143.247 25.7585C143.685 24.7983 143.903 23.6278 143.903 22.2472C143.903 20.8778 143.685 19.7159 143.247 18.7614C142.815 17.8068 142.17 17.0824 141.312 16.5881C140.455 16.0937 139.389 15.8466 138.116 15.8466H135.082V28.6989ZM155.207 31.2642C153.917 31.2642 152.806 30.9886 151.874 30.4375C150.948 29.8807 150.232 29.0994 149.727 28.0938C149.227 27.0824 148.977 25.8977 148.977 24.5398C148.977 23.1989 149.227 22.017 149.727 20.9943C150.232 19.9716 150.937 19.1733 151.84 18.5994C152.749 18.0256 153.812 17.7386 155.028 17.7386C155.766 17.7386 156.482 17.8608 157.175 18.1051C157.869 18.3494 158.491 18.733 159.042 19.2557C159.593 19.7784 160.028 20.4574 160.346 21.2926C160.664 22.1222 160.823 23.1307 160.823 24.3182V25.2216H150.417V23.3125H158.326C158.326 22.642 158.19 22.0483 157.917 21.5312C157.644 21.0085 157.261 20.5966 156.766 20.2955C156.278 19.9943 155.704 19.8438 155.045 19.8438C154.329 19.8438 153.704 20.0199 153.17 20.3722C152.641 20.7187 152.232 21.1733 151.942 21.7358C151.658 22.2926 151.516 22.8977 151.516 23.5511V25.0426C151.516 25.9176 151.67 26.6619 151.977 27.2756C152.289 27.8892 152.724 28.358 153.281 28.6818C153.837 29 154.488 29.1591 155.232 29.1591C155.715 29.1591 156.156 29.0909 156.553 28.9545C156.951 28.8125 157.295 28.6023 157.585 28.3239C157.874 28.0455 158.096 27.7017 158.249 27.2926L160.661 27.7273C160.468 28.4375 160.121 29.0597 159.621 29.5938C159.127 30.1222 158.505 30.5341 157.755 30.8295C157.011 31.1193 156.161 31.2642 155.207 31.2642ZM163.651 31V17.9091H166.097V20.0398H166.259C166.531 19.3182 166.977 18.7557 167.597 18.3523C168.216 17.9432 168.957 17.7386 169.821 17.7386C170.696 17.7386 171.429 17.9432 172.02 18.3523C172.616 18.7614 173.057 19.3239 173.341 20.0398H173.477C173.79 19.3409 174.287 18.7841 174.969 18.3693C175.651 17.9489 176.463 17.7386 177.406 17.7386C178.594 17.7386 179.562 18.1108 180.312 18.8551C181.068 19.5994 181.446 20.7216 181.446 22.2216V31H178.898V22.4602C178.898 21.5739 178.656 20.9318 178.173 20.5341C177.69 20.1364 177.114 19.9375 176.443 19.9375C175.614 19.9375 174.969 20.1932 174.509 20.7045C174.048 21.2102 173.818 21.8608 173.818 22.6562V31H171.278V22.2983C171.278 21.5881 171.057 21.017 170.614 20.5852C170.17 20.1534 169.594 19.9375 168.884 19.9375C168.401 19.9375 167.955 20.0653 167.545 20.321C167.142 20.571 166.815 20.9205 166.565 21.3693C166.321 21.8182 166.199 22.3381 166.199 22.929V31H163.651ZM190.376 31.2642C189.148 31.2642 188.077 30.983 187.163 30.4205C186.248 29.858 185.538 29.071 185.032 28.0597C184.526 27.0483 184.273 25.8665 184.273 24.5142C184.273 23.1562 184.526 21.9687 185.032 20.9517C185.538 19.9347 186.248 19.1449 187.163 18.5824C188.077 18.0199 189.148 17.7386 190.376 17.7386C191.603 17.7386 192.674 18.0199 193.589 18.5824C194.504 19.1449 195.214 19.9347 195.719 20.9517C196.225 21.9687 196.478 23.1562 196.478 24.5142C196.478 25.8665 196.225 27.0483 195.719 28.0597C195.214 29.071 194.504 29.858 193.589 30.4205C192.674 30.983 191.603 31.2642 190.376 31.2642ZM190.384 29.125C191.18 29.125 191.839 28.9148 192.362 28.4943C192.884 28.0739 193.271 27.5142 193.521 26.8153C193.776 26.1165 193.904 25.3466 193.904 24.5057C193.904 23.6705 193.776 22.9034 193.521 22.2045C193.271 21.5 192.884 20.9347 192.362 20.5085C191.839 20.0824 191.18 19.8693 190.384 19.8693C189.583 19.8693 188.918 20.0824 188.39 20.5085C187.867 20.9347 187.478 21.5 187.222 22.2045C186.972 22.9034 186.847 23.6705 186.847 24.5057C186.847 25.3466 186.972 26.1165 187.222 26.8153C187.478 27.5142 187.867 28.0739 188.39 28.4943C188.918 28.9148 189.583 29.125 190.384 29.125Z" fill="white"/>
</g>
<defs>
<filter id="filter0_d_636_467" x="0" y="0" width="216" height="53" filterUnits="userSpaceOnUse" color-interpolation-filters="sRGB">
<feFlood flood-opacity="0" result="BackgroundImageFix"/>
<feColorMatrix in="SourceAlpha" type="matrix" values="0 0 0 0 0 0 0 0 0 0 0 0 0 0 0 0 0 0 127 0" result="hardAlpha"/>
<feOffset dy="4"/>
<feGaussianBlur stdDeviation="2"/>
<feComposite in2="hardAlpha" operator="out"/>
<feColorMatrix type="matrix" values="0 0 0 0 0 0 0 0 0 0 0 0 0 0 0 0 0 0 0.25 0"/>
<feBlend mode="normal" in2="BackgroundImageFix" result="effect1_dropShadow_636_467"/>
<feBlend mode="normal" in="SourceGraphic" in2="effect1_dropShadow_636_467" result="shape"/>
</filter>
</defs>
</svg>
