<svg width="2" height="2" viewBox="0 0 2 2" fill="none" xmlns="http://www.w3.org/2000/svg">
<path d="M1.036 0.22779L1.012 0.231792L0.869999 0.301792L0.83 0.309791L0.802 0.301792L0.66 0.229793C0.638667 0.22446 0.622666 0.228457 0.612 0.24179L0.604 0.261791L0.57 1.11779L0.58 1.15779L0.6 1.18379L0.807999 1.33179L0.837999 1.33979L0.862 1.33179L1.07 1.18379L1.094 1.15179L1.102 1.11779L1.068 0.26379C1.06267 0.242456 1.052 0.230457 1.036 0.22779ZM1.564 0.0017923L1.536 0.00579011L1.168 0.191791L1.148 0.211791L1.142 0.233791L1.178 1.09379L1.188 1.11779L1.204 1.13379L1.606 1.31779C1.63133 1.32446 1.65067 1.31912 1.664 1.30179L1.672 1.27379L1.604 0.045791C1.59733 0.0204577 1.584 0.0057923 1.564 0.0017923ZM0.133999 0.00579011C0.125185 0.000448799 0.114652 -0.00128255 0.104591 0.000953069C0.0945311 0.00318869 0.0857217 0.00921978 0.0799999 0.0177911L0.0679989 0.045791L0 1.27379C0.00133333 1.29779 0.0126671 1.31379 0.0340004 1.32179L0.0639992 1.31779L0.466 1.13179L0.486 1.11579L0.491999 1.09379L0.528 0.233791L0.521999 0.209792L0.501999 0.189792L0.133999 0.00579011Z" fill="white"/>
</svg>
